<?xml version="1.0" encoding="UTF-8"?>
<svg version="1.1" xmlns="http://www.w3.org/2000/svg" width="182" height="195">
<path d="M0 0 C60.06 0 120.12 0 182 0 C182 64.35 182 128.7 182 195 C121.94 195 61.88 195 0 195 C0 130.65 0 66.3 0 0 Z " fill="#CCD3DB" transform="translate(0,0)"/>
<path d="M0 0 C60.06 0 120.12 0 182 0 C182 64.35 182 128.7 182 195 C121.94 195 61.88 195 0 195 C0 130.65 0 66.3 0 0 Z M38 36 C37.11828125 36.77730469 36.2365625 37.55460937 35.328125 38.35546875 C27.79546439 45.39913068 22.84443215 52.9698974 18 62 C17.56945312 62.76699219 17.13890625 63.53398438 16.6953125 64.32421875 C7.98166741 81.51509221 7.63174188 103.85833337 13 122 C20.84031615 144.48760135 35.06107101 160.96688736 56 172 C56.76441406 172.42796875 57.52882812 172.8559375 58.31640625 173.296875 C75.48793102 182.03385433 97.87201653 182.36420917 116 177 C137.12848895 169.63353923 154.7749019 156.04161019 165.05078125 135.97216797 C175.66552372 113.918184 176.95778712 91.16466437 169 68 C165.42783305 59.18852697 160.34856412 51.07375081 154 44 C153.22269531 43.11828125 152.44539062 42.2365625 151.64453125 41.328125 C136.95422107 25.61795577 116.32037014 16.58459589 94.8894043 15.61669922 C73.89167534 15.11411207 53.69672322 21.91247322 38 36 Z " fill="#FEFEFE" transform="translate(0,0)"/>
<path d="M0 0 C0.70769531 -0.00773437 1.41539063 -0.01546875 2.14453125 -0.0234375 C15.36338986 0.02489471 28.1347138 6.04667301 37.60546875 15.1484375 C46.74904843 25.29121248 51.89931385 37.08778315 51.75 50.75 C51.76160156 51.81154297 51.76160156 51.81154297 51.7734375 52.89453125 C51.72332777 66.59954269 45.30039394 79.38350543 35.88671875 89.1328125 C32.08113588 92.50863233 28.03497076 94.97538416 23.5 97.25 C22.70078125 97.65089844 21.9015625 98.05179687 21.078125 98.46484375 C9.80507688 103.77982114 -5.14273606 104.14825907 -17.01953125 100.28515625 C-32.43169213 93.85330958 -41.71878686 82.78177627 -48.51953125 67.92578125 C-52.49386054 57.07950411 -51.93727097 41.88270592 -47.5 31.25 C-41.00584116 17.9177549 -30.39027947 7.63952643 -16.5 2.25 C-10.86346218 0.59045154 -5.85847631 -0.06402706 0 0 Z " fill="#FEFEFE" transform="translate(91.5,46.75)"/>
</svg>
