<?xml version="1.0" standalone="no"?> <!DOCTYPE svg PUBLIC "-//W3C//DTD SVG 20010904//EN" "http://www.w3.org/TR/2001/REC-SVG-20010904/DTD/svg10.dtd"> <svg version="1.0" xmlns="http://www.w3.org/2000/svg" width="810.000000pt" height="792.000000pt" viewBox="0 0 810.000000 792.000000" preserveAspectRatio="xMidYMid meet"> <g transform="translate(0.000000,792.000000) scale(0.100000,-0.100000)" fill="#ababab" stroke="none"> <path d="M3845 7699 c-38 -4 -104 -12 -145 -17 l-75 -9 -1684 -1684 -1685 -1684 -8 -60 c-13 -97 -24 -248 -20 -272 7 -35 23 -27 72 34 59 74 3549 3564 3623 3623 68 54 69 87 2 79 -5 -1 -41 -5 -80 -10z"/> <path d="M2688 5492 c-1164 -1164 -2165 -2165 -2225 -2224 -60 -59 -117 -116 -127 -127 l-19 -21 11 -13 c6 -7 16 -37 21 -67 6 -30 16 -85 23 -122 17 -89 15 -89 99 4 86 97 4439 4452 4546 4549 77 69 80 79 27 79 -18 0 -53 6 -76 14 -24 8 -64 17 -90 21 -26 3 -50 10 -53 16 -4 5 -9 9 -13 9 -4 0 -960 -953 -2124 -2118z"/> <path d="M2330 7330 c0 -5 -5 -10 -11 -10 -6 0 -44 -19 -83 -43 -39 -24 -80 -46 -90 -50 -11 -4 -51 -28 -90 -54 -39 -25 -102 -67 -141 -92 -85 -55 -324 -235 -380 -286 -22 -20 -69 -62 -104 -93 -78 -69 -76 -66 -181 -183 -47 -51 -106 -116 -131 -144 -26 -27 -59 -69 -75 -91 -16 -23 -51 -69 -77 -103 -27 -33 -77 -105 -112 -158 -35 -54 -69 -103 -75 -110 -5 -7 -10 -14 -10 -17 0 -3 -13 -24 -29 -48 -16 -24 -41 -68 -56 -98 -14 -30 -42 -81 -61 -114 -19 -32 -34 -66 -34 -76 0 -10 -7 -21 -16 -24 l-15 -6 7 -11 7 -12 12 16 c7 10 17 17 24 17 6 0 11 4 11 10 0 25 943 982 1508 1529 138 135 252 248 252 253 0 4 -11 8 -25 8 -14 0 -25 -4 -25 -10z"/> <path d="M3192 4745 l-2522 -2525 1 -22 c0 -13 14 -45 30 -73 16 -27 40 -72 53 -98 29 -59 23 -60 97 21 92 100 5008 5019 5052 5054 42 34 47 54 15 64 -13 4 -58 29 -101 55 -43 27 -84 49 -91 49 -6 0 -1147 -1136 -2534 -2525z"/> <path d="M6439 6760 c-8 -5 -60 -55 -115 -111 -193 -199 -4932 -4936 -5039 -5039 -61 -57 -114 -110 -118 -117 l-8 -13 43 -51 c24 -28 58 -67 76 -86 17 -20 32 -40 32 -44 0 -5 7 -9 15 -9 8 0 15 5 15 12 0 14 5213 5230 5265 5268 19 14 34 30 34 35 0 9 -68 69 -158 142 l-27 21 -15 -8z"/> <path d="M4472 3458 l-2602 -2603 4 -12 c3 -7 36 -28 73 -48 37 -20 84 -46 105 -58 l36 -21 85 89 c78 83 4641 4648 4916 4919 67 65 121 124 121 130 0 6 -23 45 -51 86 -28 41 -55 85 -60 98 -5 12 -12 22 -16 22 -5 0 -1179 -1171 -2611 -2602z"/> <path d="M7467 5118 c-69 -74 -4278 -4286 -4515 -4519 -106 -105 -191 -196 -189 -202 2 -7 24 -15 49 -18 25 -4 55 -12 66 -18 11 -6 31 -11 44 -11 13 0 32 -7 42 -15 11 -8 29 -15 41 -15 l21 0 57 58 c31 31 1062 1065 2292 2297 l2235 2240 0 20 c0 11 -7 29 -15 39 -8 11 -15 30 -15 42 0 12 -7 35 -15 50 -8 16 -15 43 -15 60 l0 32 -16 6 -17 6 -50 -52z"/> <path d="M7620 3935 c-109 -119 -3534 -3544 -3654 -3653 -44 -40 -76 -75 -72 -79 10 -10 337 -4 355 7 8 4 793 786 1744 1736 l1731 1729 7 165 7 165 -10 18 c-11 22 0 32 -108 -88z"/> <path d="M7255 2243 c-237 -254 -994 -1012 -1536 -1539 -68 -67 -130 -131 -137 -144 l-13 -22 21 7 c12 4 41 20 63 35 23 15 69 42 102 60 123 66 140 75 150 83 38 29 137 98 175 120 146 85 581 469 705 621 22 27 54 66 70 85 17 20 48 58 70 85 22 27 48 60 60 73 29 33 87 115 151 213 85 131 117 183 200 340 11 19 22 37 27 38 4 2 7 15 7 28 0 37 -8 31 -115 -83z"/> </g> </svg>